Coordinates
version=1
nRows=16
nColumns=22
inDegrees=yes

Units are S.I. units (second, meters, Newtons, ...)
If the header above contains a line with 'inDegrees', this indicates whether rotational values are in degrees (yes) or radians (no).

endheader
time	pelvis_tilt	pelvis_list	pelvis_rotation	pelvis_tx	pelvis_ty	pelvis_tz	hip_flexion_r	hip_adduction_r	hip_rotation_r	knee_angle_r	ankle_angle_r	subtalar_angle_r	hip_flexion_l	hip_adduction_l	hip_rotation_l	knee_angle_l	ankle_angle_l	subtalar_angle_l	lumbar_extension	lumbar_bending	lumbar_rotation
      3.07000000	     -2.29257781	      5.91687491	    218.68614125	     -0.41413753	      0.95774293	     -0.48309043	     28.58782552	     -3.75503707	     -3.83495938	    -41.29896179	      4.14066562	      2.32021205	      0.20902519	      5.42732603	     20.19970242	    -14.23995268	     12.73324128	    -13.27764496	     -0.55431895	      2.58061199	    -13.78484049
      3.08000000	     -2.36783516	      6.04501026	    219.72421446	     -0.42057635	      0.95715174	     -0.47818620	     28.99182369	     -3.43314031	     -3.72194395	    -39.22307282	      3.77144889	      3.08656987	     -0.39927246	      5.12325486	     21.11086665	    -14.04851330	     13.01179840	    -13.36852300	     -0.54007575	      2.69559056	    -13.84188302
      3.09000000	     -2.44273194	      6.17792534	    220.72593770	     -0.42703223	      0.95646352	     -0.47327776	     29.37379816	     -3.12044689	     -3.67391498	    -37.14063222	      3.39953636	      3.85863727	     -0.97462759	      4.80763594	     21.97978488	    -13.89555544	     13.29036670	    -13.46350217	     -0.52253020	      2.81344287	    -13.86925776
      3.10000000	     -2.52640245	      6.30822095	    221.69602834	     -0.43351182	      0.95569577	     -0.46834881	     29.71572854	     -2.81584520	     -3.68498674	    -35.05064998	      3.08443057	      4.65338606	     -1.53756739	      4.47983796	     22.82650980	    -13.77071804	     13.56736985	    -13.53743465	     -0.51576179	      2.93235878	    -13.86584497
      3.11000000	     -2.61842637	      6.43707476	    222.64647748	     -0.44001668	      0.95485189	     -0.46339259	     30.01269770	     -2.51600544	     -3.74436123	    -32.95053176	      2.87596972	      5.42353822	     -2.08592140	      4.13785521	     23.64636921	    -13.67588820	     13.84916789	    -13.57117165	     -0.51685948	      3.05267704	    -13.86004744
      3.12000000	     -2.71138528	      6.55179475	    223.54831286	     -0.44658909	      0.95395454	     -0.45839253	     30.26888541	     -2.22079600	     -3.80835819	    -30.85703141	      2.81297439	      6.31071455	     -2.65368368	      3.78896278	     24.43638380	    -13.55788021	     14.08537118	    -13.56761200	     -0.52696117	      3.16196976	    -13.76774645
      3.13000000	     -2.81536769	      6.66005253	    224.43848762	     -0.45321413	      0.95300376	     -0.45334954	     30.46955001	     -1.91602214	     -3.85458493	    -28.76393357	      2.91297870	      7.12877017	     -3.22596898	      3.42080592	     25.20169837	    -13.44775759	     14.34207227	    -13.53287111	     -0.54883282	      3.26950377	    -13.68176174
      3.14000000	     -2.92682312	      6.75484541	    225.30755352	     -0.45992374	      0.95201409	     -0.44825524	     30.61342717	     -1.59708601	     -3.82271775	    -26.68089904	      3.16976132	      7.92866007	     -3.82011394	      3.03526883	     25.93633365	    -13.31920572	     14.59918954	    -13.48400047	     -0.58261510	      3.36682558	    -13.57539903
      3.15000000	     -3.04132942	      6.83498488	    226.16010864	     -0.46670849	      0.95098769	     -0.44309877	     30.70169587	     -1.26555889	     -3.65813199	    -24.61947960	      3.55098940	      8.70521018	     -4.43359341	      2.63720376	     26.64029781	    -13.17358785	     14.85345089	    -13.43151336	     -0.62570311	      3.45190622	    -13.45062079
      3.16000000	     -3.15574173	      6.89483787	    227.00191712	     -0.47356304	      0.94992784	     -0.43785908	     30.73105719	     -0.93097327	     -3.30920851	    -22.59448303	      4.01118619	      9.45858623	     -5.06852724	      2.23408457	     27.31225094	    -13.01218460	     15.10596588	    -13.37954488	     -0.67867992	      3.51968747	    -13.31793328
      3.17000000	     -3.24981375	      6.93971681	    227.83199555	     -0.48046513	      0.94882242	     -0.43251589	     30.72142541	     -0.61309693	     -2.72497404	    -20.63085406	      4.49534434	     10.26599737	     -5.70318845	      1.84224011	     27.94828633	    -12.84063078	     15.32318997	    -13.32533251	     -0.72157794	      3.56112086	    -13.18230831
      3.18000000	     -3.35732443	      6.95530179	    228.67468363	     -0.48741678	      0.94770798	     -0.42702741	     30.63588528	     -0.31586708	     -1.93965435	    -18.75874870	      4.96040981	     10.88331790	     -6.37076245	      1.44652312	     28.56446926	    -12.67025327	     15.54002734	    -13.26855107	     -0.78775647	      3.59344040	    -13.07493258
      3.19000000	     -3.42893754	      6.92790763	    229.49588093	     -0.49439516	      0.94655534	     -0.42137801	     30.53144405	     -0.08737228	     -0.91603437	    -17.06185906	      5.39384725	     11.52836314	     -7.05604379	      1.10179571	     29.15872467	    -12.48956813	     15.71656392	    -13.20267959	     -0.85524790	      3.57374440	    -12.94319622
      3.20000000	     -3.47499717	      6.87503134	    230.32751734	     -0.50136413	      0.94535087	     -0.41555432	     30.43358606	      0.06749291	      0.23918587	    -15.60736051	      5.76860545	     12.12314031	     -7.72577391	      0.79756357	     29.75457439	    -12.35331251	     15.90314060	    -13.13268812	     -0.91573544	      3.52131765	    -12.83578988
      3.21000000	     -3.50939180	      6.78597675	    231.16561814	     -0.50837538	      0.94414444	     -0.40949125	     30.33674328	      0.15540193	      1.43176923	    -14.45266384	      6.08407067	     12.50914154	     -8.41868913	      0.52164970	     30.32162336	    -12.22878590	     16.02617159	    -13.04228519	     -0.98092691	      3.44524344	    -12.76361845
      3.22000000	     -3.53293778	      6.65177407	    232.00378186	     -0.51541943	      0.94293847	     -0.40319895	     30.27442945	      0.18247807	      2.58322630	    -13.69091290	      6.34964188	     12.70269418	     -9.13437792	      0.28679837	     30.88569126	    -12.14076339	     16.12291037	    -12.94004194	     -1.06248738	      3.34067010	    -12.70799843
